<?xml version="1.0" standalone="no"?>
<svg xmlns:xlink="http://www.w3.org/1999/xlink" id="svg-5" xmlns="http://www.w3.org/2000/svg" width="100" height="100"><rect x="0" y="0" width="20" height="20" style="fill: rgb(17, 106, 123);"/><rect x="0" y="20" width="20" height="20" style="fill: rgb(245, 239, 231);"/><rect x="0" y="40" width="20" height="20" style="fill: rgb(147, 54, 180);"/><rect x="0" y="60" width="20" height="20" style="fill: rgb(115, 187, 201);"/><rect x="0" y="80" width="20" height="20" style="fill: rgb(179, 19, 18);"/><rect x="20" y="0" width="20" height="20" style="fill: rgb(228, 165, 255);"/><rect x="20" y="20" width="20" height="20" style="fill: rgb(216, 196, 182);"/><rect x="20" y="40" width="20" height="20" style="fill: rgb(221, 88, 214);"/><rect x="20" y="60" width="20" height="20" style="fill: rgb(247, 230, 196);"/><rect x="20" y="80" width="20" height="20" style="fill: rgb(43, 42, 76);"/><rect x="40" y="0" width="20" height="20" style="fill: rgb(255, 170, 201);"/><rect x="40" y="20" width="20" height="20" style="fill: rgb(79, 112, 156);"/><rect x="40" y="40" width="20" height="20" style="fill: rgb(255, 231, 155);"/><rect x="40" y="60" width="20" height="20" style="fill: rgb(241, 195, 118);"/><rect x="40" y="80" width="20" height="20" style="fill: rgb(194, 222, 220);"/><rect x="60" y="0" width="20" height="20" style="fill: rgb(255, 205, 168);"/><rect x="60" y="20" width="20" height="20" style="fill: rgb(33, 53, 85);"/><rect x="60" y="40" width="20" height="20" style="fill: rgb(252, 233, 241);"/><rect x="60" y="60" width="20" height="20" style="fill: rgb(238, 226, 222);"/><rect x="60" y="80" width="20" height="20" style="fill: rgb(236, 229, 199);"/><rect x="80" y="0" width="20" height="20" style="fill: rgb(255, 231, 206);"/><rect x="80" y="20" width="20" height="20" style="fill: rgb(64, 18, 139);"/><rect x="80" y="40" width="20" height="20" style="fill: rgb(241, 212, 229);"/><rect x="80" y="60" width="20" height="20" style="fill: rgb(234, 144, 108);"/><rect x="80" y="80" width="20" height="20" style="fill: rgb(205, 194, 174);"/></svg>